# xmcd CD database generated by RipIT
#
# Track frame offsets:
# 150
# 21585
# 39731
# 56130
# 72360
# 92140
# 111205
# 131617
# 149645
# 168921
# 189305
# 210402
#
# Disc length: 3062 seconds
#
# Revision: 2
# Processed by: cddbd v1.5.2PL0 Copyright (c) Steve Scherf et al.
# Submitted via: RipIT 3.9.0 www.suwald.com/ripit/ripit.html on 2011-12-18 at 19:39
#
DISCID=b50bf40c
DTITLE=Rosenstolz - Die Suche geht weiter (2008)
DYEAR=2008
DGENRE=Classical
TTITLE0=Ich bin mein Haus
TTITLE1=Gib mir Sonne
TTITLE2=Blaue Flecken
TTITLE3=Irgendwo dazwischen
TTITLE4=Kein Lied von Liebe
TTITLE5=Wie weit ist vorbei
TTITLE6=An einem Morgen im April
TTITLE7=Unerwartet (ein Fenster zum Himmel)
TTITLE8=Bist Du dabei
TTITLE9=Herz schlaegt auch im Eis
TTITLE10=Wann kommst Du (Autos fahr'n an mir vorbei)
TTITLE11=Die Suche geht weiter
EXTD=YEAR: 2008\n
EXTT0=
EXTT1=
EXTT2=
EXTT3=
EXTT4=
EXTT5=
EXTT6=
EXTT7=
EXTT8=
EXTT9=
EXTT10=
EXTT11=
PLAYORDER=
